<?xml version="1.0" standalone="no"?>
<!DOCTYPE svg PUBLIC "-//W3C//DTD SVG 20010904//EN"
 "http://www.w3.org/TR/2001/REC-SVG-20010904/DTD/svg10.dtd">
<svg version="1.0" xmlns="http://www.w3.org/2000/svg"
 width="225.000000pt" height="224.000000pt" viewBox="0 0 225.000000 224.000000"
 preserveAspectRatio="xMidYMid meet">

<g transform="translate(0.000000,224.000000) scale(0.100000,-0.100000)"
fill="#000000" stroke="none">
<path d="M980 2201 c0 -6 4 -13 10 -16 6 -3 7 1 4 9 -7 18 -14 21 -14 7z"/>
<path d="M1130 2191 c0 -6 4 -13 10 -16 6 -3 7 1 4 9 -7 18 -14 21 -14 7z"/>
<path d="M1369 2133 c-13 -16 -12 -17 4 -4 9 7 17 15 17 17 0 8 -8 3 -21 -13z"/>
<path d="M832 2120 c0 -14 2 -19 5 -12 2 6 2 18 0 25 -3 6 -5 1 -5 -13z"/>
<path d="M876 2125 c4 -8 11 -15 16 -15 6 0 5 6 -2 15 -7 8 -14 15 -16 15 -2
0 -1 -7 2 -15z"/>
<path d="M1286 2117 c3 -10 9 -15 12 -12 3 3 0 11 -7 18 -10 9 -11 8 -5 -6z"/>
<path d="M1090 2095 c7 -9 15 -13 17 -11 7 7 -7 26 -19 26 -6 0 -6 -6 2 -15z"/>
<path d="M714 2088 c-4 -7 -4 -10 1 -6 4 4 17 2 29 -4 19 -10 20 -10 7 5 -16
20 -27 21 -37 5z"/>
<path d="M1494 2085 c-10 -8 -14 -15 -8 -15 6 0 17 7 24 15 16 19 9 19 -16 0z"/>
<path d="M720 2060 c-13 -8 -12 -10 3 -10 9 0 17 5 17 10 0 12 -1 12 -20 0z"/>
<path d="M825 2059 c-4 -6 -5 -12 -2 -15 2 -3 7 2 10 11 7 17 1 20 -8 4z"/>
<path d="M855 2050 c-3 -6 1 -7 9 -4 18 7 21 14 7 14 -6 0 -13 -4 -16 -10z"/>
<path d="M580 2046 c0 -3 9 -10 20 -16 11 -6 20 -8 20 -6 0 3 -9 10 -20 16
-11 6 -20 8 -20 6z"/>
<path d="M1003 2043 c-24 -2 -43 -8 -43 -14 0 -5 -17 -9 -38 -9 -21 0 -42 -3
-46 -7 -12 -12 -40 -12 -56 0 -8 6 -12 8 -8 3 9 -11 -20 -39 -55 -54 -23 -10
-29 -9 -33 3 -4 8 -9 13 -13 10 -4 -2 -23 7 -43 20 -22 15 -39 20 -48 15 -8
-5 -18 -6 -22 -4 -4 3 -8 -2 -8 -11 0 -14 2 -14 23 0 22 14 25 14 41 -4 10
-11 29 -22 43 -26 15 -3 23 -11 20 -19 -3 -8 0 -20 6 -27 10 -11 9 -11 -4 -1
-17 13 -71 12 -80 -2 -4 -5 -12 0 -17 11 -10 17 -8 19 17 15 16 -2 32 1 35 7
6 9 -12 14 -40 10 -4 0 -10 5 -14 11 -13 21 -22 -24 -11 -53 8 -21 7 -26 -12
-32 -22 -7 -22 -7 3 -15 21 -7 22 -8 4 -9 -11 -1 -25 -6 -32 -13 -17 -17 -15
4 4 30 17 24 15 32 -8 36 -7 1 -27 10 -45 19 -18 9 -38 17 -45 17 -7 0 2 -8
21 -18 19 -9 41 -28 50 -42 9 -13 11 -21 5 -17 -20 12 -26 -24 -7 -38 10 -8
15 -17 10 -21 -4 -4 -7 -2 -7 4 0 7 -5 12 -11 12 -5 0 -8 -4 -5 -8 3 -5 -9 -6
-26 -4 -18 3 -28 1 -25 -5 3 -5 0 -10 -7 -10 -8 0 -12 6 -9 14 3 7 0 13 -5 13
-18 0 -24 -20 -12 -35 9 -11 9 -15 1 -15 -11 0 -13 5 -15 33 -1 16 -17 27 -38
27 -11 0 -15 -5 -12 -15 4 -8 11 -12 17 -8 6 3 7 1 3 -6 -4 -6 2 -26 13 -45
31 -50 28 -54 -44 -48 -68 5 -89 -9 -40 -28 14 -5 25 -12 25 -14 0 -3 -8 -2
-17 1 -11 4 -5 -8 17 -33 l34 -39 -75 -9 -75 -9 54 -50 c60 -58 61 -57 -42
-79 l-48 -10 56 -40 c31 -22 56 -43 56 -47 0 -4 -25 -18 -55 -30 -30 -13 -55
-26 -55 -30 0 -5 29 -21 63 -37 l64 -30 -65 -39 -65 -39 59 -18 c32 -10 65
-18 72 -18 21 0 12 -13 -45 -62 l-51 -46 66 -7 c37 -4 70 -9 75 -12 4 -2 -14
-29 -39 -59 l-46 -54 71 0 c39 0 71 -3 71 -7 0 -5 -16 -33 -35 -63 -18 -30
-33 -55 -32 -56 1 -1 33 5 70 13 37 8 70 13 72 11 3 -3 -6 -32 -20 -66 -14
-34 -25 -64 -25 -66 0 -3 29 6 65 19 36 14 67 25 70 25 4 0 -4 -60 -9 -67 -1
0 -54 -11 -118 -22 -133 -24 -217 -52 -244 -82 -39 -44 -25 -277 17 -273 8 1
84 13 169 28 524 88 1005 86 1462 -5 59 -12 114 -19 121 -16 19 7 40 125 32
175 -14 79 -26 102 -63 121 -56 28 -102 41 -214 59 l-102 18 -7 32 c-4 17 -2
32 2 32 5 0 36 -11 69 -24 33 -14 60 -21 60 -17 0 4 -11 35 -24 69 -28 71 -28
72 64 47 30 -8 55 -13 56 -12 1 1 -13 28 -32 60 -19 32 -34 62 -34 67 0 5 32
6 73 3 61 -5 70 -4 61 8 -6 8 -27 35 -47 60 l-37 46 46 7 c26 3 60 6 77 6 30
0 30 0 -28 53 l-58 53 73 20 73 20 -61 39 c-34 22 -62 42 -62 45 0 3 27 16 60
28 33 13 60 27 60 31 0 5 -27 21 -61 36 -34 15 -57 30 -52 35 4 4 32 23 61 43
l54 35 -71 18 c-39 10 -71 21 -71 24 0 4 14 16 30 29 17 12 28 27 24 33 -4 6
-3 8 3 5 6 -4 18 2 27 12 16 17 15 19 -21 25 -21 3 -53 6 -70 6 -18 0 -33 3
-33 6 0 4 21 31 46 60 25 30 42 54 37 54 -5 0 -15 -6 -22 -12 -11 -10 -13 -10
-7 0 5 9 -9 12 -58 12 -42 0 -66 -4 -69 -12 -3 -8 -6 -6 -6 5 -1 9 5 17 12 17
6 0 28 26 48 58 l36 58 -61 -11 c-49 -9 -60 -15 -58 -29 3 -16 2 -16 -17 1
-12 10 -17 21 -12 27 5 6 12 22 15 36 6 19 5 21 -3 10 -9 -13 -11 -13 -11 2 0
9 -5 18 -12 20 -15 5 -1 28 18 28 8 0 13 -4 9 -9 -3 -5 -1 -12 3 -15 5 -3 14
5 20 19 10 21 9 23 -9 20 -45 -9 -57 -17 -63 -41 -4 -14 -11 -22 -17 -18 -6 3
-9 -2 -7 -12 4 -24 -32 -32 -44 -10 -5 9 -14 13 -20 10 -7 -5 -9 0 -6 14 7 25
-8 39 -40 36 -18 -1 -23 3 -19 17 3 12 0 16 -9 12 -8 -3 -11 -10 -7 -17 4 -6
-9 1 -29 17 -20 15 -42 27 -48 27 -7 0 -10 6 -7 13 3 9 -7 11 -39 8 -28 -2
-44 1 -44 8 0 6 -17 11 -39 11 -22 0 -41 5 -43 10 -3 11 -205 21 -275 13z m-3
-53 c0 -5 -2 -10 -4 -10 -3 0 -8 5 -11 10 -3 6 -1 10 4 10 6 0 11 -4 11 -10z
m202 -12 c-7 -7 -12 -8 -12 -2 0 14 12 26 19 19 2 -3 -1 -11 -7 -17z m-149 -5
c-7 -2 -19 -2 -25 0 -7 3 -2 5 12 5 14 0 19 -2 13 -5z m202 -3 c-3 -5 -14 -10
-23 -10 -15 0 -15 2 -2 10 20 13 33 13 25 0z m-192 -40 c3 -13 -2 -15 -24 -12
-18 3 -29 0 -29 -7 0 -7 10 -11 22 -9 32 5 32 -16 1 -29 l-28 -12 30 2 c17 1
32 -3 35 -8 5 -11 -66 -32 -76 -23 -3 3 -11 30 -18 60 l-12 53 47 1 c36 1 48
-3 52 -16z m121 14 c9 -3 13 -11 10 -16 -4 -6 -10 -5 -16 3 -6 9 -8 1 -6 -25
4 -56 25 -57 33 -2 8 53 35 65 35 17 0 -57 -16 -81 -54 -81 -45 0 -60 19 -51
70 7 39 17 46 49 34z m131 -44 c7 -30 25 -42 25 -16 0 18 16 29 29 22 13 -8
-20 -106 -35 -106 -6 0 -19 17 -27 38 l-15 37 -7 -27 c-4 -16 -14 -28 -22 -28
-12 0 -14 7 -10 28 16 81 49 109 62 52z m-500 10 c3 -5 2 -10 -4 -10 -5 0 -13
5 -16 10 -3 6 -2 10 4 10 5 0 13 -4 16 -10z m135 2 c0 -5 -5 -13 -12 -20 -9
-9 -9 -18 0 -37 16 -34 15 -42 -3 -49 -10 -4 -18 6 -26 35 -10 31 -16 38 -31
33 -12 -3 -18 0 -18 10 0 9 5 16 11 16 5 0 8 3 6 8 -3 4 13 8 34 9 21 2 39 -1
39 -5z m555 -2 c3 -5 1 -10 -4 -10 -6 0 -11 5 -11 10 0 6 2 10 4 10 3 0 8 -4
11 -10z m224 -59 c0 -10 -2 -11 -6 -3 -2 6 -9 12 -15 12 -6 0 -7 -7 -4 -16 3
-8 2 -12 -4 -9 -6 3 -10 1 -10 -6 0 -7 -2 -10 -5 -7 -3 2 0 19 6 37 9 25 14
29 25 20 8 -6 14 -19 13 -28z m-314 -21 c-14 -27 -32 -50 -40 -50 -19 0 -19 3
5 49 10 21 16 41 13 45 -4 3 6 6 21 6 l26 0 -25 -50z m-577 14 c12 -8 22 -13
22 -10 0 3 9 -3 21 -15 24 -24 18 -34 -19 -34 -18 0 -30 -7 -37 -23 -14 -32
-29 -22 -33 21 -2 20 -7 37 -12 37 -4 0 -6 9 -3 20 6 24 30 26 61 4z m634 -28
c-2 -21 2 -36 8 -36 6 0 8 5 4 12 -4 7 -3 8 5 4 6 -4 19 -2 27 5 11 9 18 9 26
1 14 -14 16 -11 -45 -46 -63 -36 -73 -27 -56 48 14 62 36 71 31 12z m378 4 c0
-5 -7 -10 -16 -10 -8 0 -12 5 -9 10 3 6 10 10 16 10 5 0 9 -4 9 -10z m-1097
-30 c4 -17 3 -19 -9 -9 -24 20 -15 -4 13 -33 20 -21 24 -31 15 -40 -8 -8 -18
-3 -38 21 -19 23 -30 29 -37 22 -15 -15 -27 -14 -27 3 0 17 58 68 70 61 4 -2
10 -14 13 -25z m518 6 c246 -76 405 -335 355 -576 -54 -259 -256 -430 -506
-430 -139 0 -251 48 -356 154 -231 234 -197 601 74 788 117 81 294 107 433 64z
m537 12 c-2 -7 3 -12 10 -10 9 1 8 -5 -4 -23 -19 -29 -20 -29 -30 -13 -5 7 -3
8 6 3 10 -6 12 -1 7 23 -4 19 -2 32 3 32 6 0 9 -6 8 -12z m-31 -20 c-3 -8 -6
-5 -6 6 -1 11 2 17 5 13 3 -3 4 -12 1 -19z m-1217 -12 c0 -2 -9 -2 -20 1 -11
3 -20 9 -20 15 0 5 9 4 20 -2 11 -6 20 -12 20 -14z m-57 7 c-7 -2 -19 -2 -25
0 -7 3 -2 5 12 5 14 0 19 -2 13 -5z m-55 -38 c-3 -3 -9 2 -12 12 -6 14 -5 15
5 6 7 -7 10 -15 7 -18z m1156 -8 c23 -31 15 -48 -12 -24 -27 24 -35 21 -17 -7
18 -27 5 -45 -15 -21 -21 25 -33 17 -15 -11 25 -39 9 -42 -27 -6 l-32 31 39
35 c22 19 44 34 49 32 6 -1 19 -14 30 -29z m-952 -33 c-9 -7 -14 -16 -9 -20 4
-4 13 -2 19 4 7 7 22 12 35 12 19 0 23 -5 23 -29 0 -19 -8 -35 -22 -45 -33
-23 -47 -2 -17 24 20 18 21 21 4 14 -42 -15 -70 -10 -73 13 -4 28 36 72 48 52
5 -8 2 -17 -8 -25z m-179 0 c-7 -19 -10 -18 -16 5 -3 13 -1 18 9 14 7 -2 10
-11 7 -19z m1191 -46 c9 -12 16 -33 16 -45 0 -23 -33 -48 -49 -39 -5 3 -12 -1
-15 -10 -9 -25 -27 -5 -20 22 5 21 3 25 -12 22 -30 -5 -22 20 16 46 43 31 45
31 64 4z m196 2 c0 -5 -2 -10 -4 -10 -3 0 -8 5 -11 10 -3 6 -1 10 4 10 6 0 11
-4 11 -10z m20 -13 c0 -2 -8 -11 -18 -20 -15 -14 -19 -15 -19 -2 0 8 4 12 8 9
4 -2 10 0 14 6 6 10 15 14 15 7z m-1258 -74 c24 -21 23 -58 -2 -83 -42 -42
-96 -12 -91 52 3 43 59 62 93 31z m1090 -20 c18 -16 25 -63 10 -63 -5 0 -13
12 -19 28 l-11 27 -1 -31 c-1 -36 -21 -57 -44 -48 -17 6 -39 58 -30 68 12 12
23 5 23 -13 0 -11 5 -23 10 -26 6 -4 10 6 10 22 0 26 15 53 29 53 2 0 13 -7
23 -17z m225 2 c0 -8 -4 -12 -9 -9 -5 3 -6 10 -3 15 9 13 12 11 12 -6z m-1355
-112 c18 -16 24 -68 10 -90 -4 -7 -24 -9 -55 -6 -46 5 -47 7 -47 39 0 37 29
74 57 74 9 0 25 -7 35 -17z m1168 3 c0 -12 -64 -29 -97 -27 -21 2 -4 27 22 32
52 11 75 10 75 -5z m14 -83 c5 -35 3 -43 -9 -43 -8 0 -15 7 -15 16 0 12 -9 15
-42 12 -24 -2 -43 2 -45 8 -4 12 27 24 66 24 16 0 21 4 18 14 -7 16 3 30 14
19 3 -5 9 -27 13 -50z m-1170 -64 c11 -55 9 -57 -48 -61 -53 -3 -55 -2 -60 26
-9 44 -7 56 9 56 9 0 15 -9 15 -25 0 -14 5 -25 10 -25 6 0 10 11 10 25 0 14 5
25 10 25 6 0 10 -11 10 -25 0 -14 5 -25 10 -25 6 0 10 14 10 30 0 39 16 39 24
-1z m1176 -2 c0 -8 -11 -19 -24 -27 l-25 -13 21 -17 c36 -29 17 -43 -22 -15
-18 14 -42 25 -53 25 -35 0 -11 23 36 35 26 7 50 15 54 18 10 10 13 8 13 -6z
m73 -192 c-3 -9 -8 -14 -10 -11 -3 3 -2 9 2 15 9 16 15 13 8 -4z m-1025 -310
c-12 -25 -28 -45 -35 -45 -17 0 -16 4 3 43 22 44 35 58 45 51 5 -2 -1 -25 -13
-49z m641 9 c21 -46 -25 -93 -73 -74 -48 18 -43 81 8 100 30 11 52 1 65 -26z
m-573 -9 c7 -29 16 -31 34 -10 7 8 16 12 21 9 8 -4 -63 -84 -74 -84 -2 0 -3
25 -4 55 -2 57 12 74 23 30z m438 -32 c3 -16 8 -38 12 -50 5 -17 2 -23 -10
-23 -10 0 -16 8 -16 21 0 15 -4 19 -16 15 -9 -3 -20 -6 -25 -6 -5 0 -6 -12 -3
-26 5 -20 3 -25 -7 -22 -15 5 -42 85 -33 99 10 16 24 9 24 -11 0 -11 6 -20 13
-20 22 0 38 16 31 33 -4 11 -1 17 9 17 8 0 17 -12 21 -27z m-295 -27 c6 -25
11 -53 11 -63 -1 -16 -2 -16 -13 -2 -17 23 -58 34 -67 19 -4 -7 -13 -11 -19
-9 -14 5 47 99 64 99 7 0 18 -20 24 -44z m621 41 c0 -2 -10 -12 -22 -23 l-23
-19 19 23 c18 21 26 27 26 19z m-533 -37 c9 -16 20 -30 24 -30 4 0 12 14 19
30 21 50 40 38 40 -26 0 -39 -4 -54 -12 -52 -7 3 -15 15 -18 29 l-6 24 -8 -22
c-10 -30 -22 -29 -40 5 l-15 27 -1 -32 c0 -18 -4 -33 -10 -33 -5 0 -10 25 -10
55 0 62 11 69 37 25z m426 -156 c56 -6 65 -9 55 -21 -10 -12 -8 -12 13 -3 17
8 44 8 89 2 l65 -10 -60 -2 c-33 -1 -73 -3 -88 -4 -16 -1 -30 1 -33 6 -3 4
-11 5 -19 1 -8 -3 -15 0 -15 6 0 6 -7 11 -16 11 -10 0 -14 -6 -10 -15 3 -8 1
-15 -4 -15 -6 0 -10 3 -10 8 0 4 -13 8 -30 8 -16 1 -28 -2 -25 -6 3 -4 -2 -11
-11 -14 -8 -3 -12 -2 -9 3 3 5 1 12 -5 16 -5 3 -10 0 -10 -7 0 -10 -2 -10 -9
1 -6 10 -10 10 -16 1 -6 -9 -10 -9 -16 1 -6 10 -9 11 -9 2 0 -7 -5 -13 -11
-13 -5 0 -8 4 -5 8 2 4 -4 9 -15 9 -10 1 -19 -4 -19 -10 0 -7 -4 -6 -10 3 -8
12 -10 12 -10 -5 -1 -17 -2 -18 -10 -4 -11 20 -66 20 -62 1 1 -8 -2 -11 -8 -7
-6 3 -8 11 -5 16 4 5 -1 9 -9 9 -9 0 -16 -8 -17 -17 0 -15 -2 -15 -9 2 -5 11
-9 14 -9 6 -1 -8 -7 -11 -18 -6 -33 13 -48 12 -61 -4 -10 -13 -11 -13 -7 -1 5
15 2 16 -100 23 -23 2 -30 -2 -29 -15 2 -16 0 -16 -19 -3 -26 18 -41 19 -31 3
5 -7 3 -8 -7 -3 -7 5 -25 9 -40 9 -15 1 -31 4 -35 9 -4 4 -18 7 -31 7 -13 0
-22 -3 -20 -7 3 -5 -2 -15 -11 -23 -14 -13 -15 -12 -9 2 5 14 2 16 -16 9 -12
-4 -33 -5 -47 -1 -14 4 -30 3 -36 -1 -6 -5 -11 -3 -11 5 0 13 75 23 277 40 63
6 541 -3 623 -10z m-928 -24 c-3 -5 -23 -10 -43 -9 -30 0 -33 2 -17 9 28 12
67 12 60 0z m200 -10 c3 -6 -1 -7 -9 -4 -18 7 -21 14 -7 14 6 0 13 -4 16 -10z
m190 -1 c11 -16 1 -19 -13 -3 -7 8 -8 14 -3 14 5 0 13 -5 16 -11z m-120 -19
c-3 -5 -12 -10 -18 -10 -7 0 -6 4 3 10 19 12 23 12 15 0z m380 -19 c-3 -6 7
-9 22 -8 25 2 28 -2 30 -30 1 -18 -3 -33 -8 -33 -5 0 -9 6 -9 13 0 8 -3 8 -8
2 -13 -19 -70 -17 -81 2 -9 17 -10 17 -16 1 -12 -29 -25 -20 -25 16 0 34 1 35
40 34 23 0 44 2 47 6 10 9 15 7 8 -3z m-336 -32 c14 -41 14 -42 -4 -35 -9 3
-25 0 -35 -7 -16 -9 -24 -9 -41 2 -15 9 -24 10 -28 2 -4 -6 -20 -10 -36 -9
-17 0 -48 -3 -71 -6 -40 -7 -41 -7 -48 25 -3 18 -5 33 -4 35 7 6 85 7 96 0 7
-4 12 -2 12 3 0 6 5 11 10 11 6 0 10 -11 10 -25 0 -14 5 -25 11 -25 5 0 9 10
7 22 -3 19 2 23 35 25 20 2 37 -1 37 -7 0 -5 -7 -10 -15 -10 -8 0 -15 -7 -15
-15 0 -8 7 -15 15 -15 9 0 18 7 20 15 3 8 7 22 10 30 7 24 22 17 34 -16z m180
6 c9 -19 10 -19 10 3 1 34 21 16 21 -19 0 -32 -23 -40 -35 -11 -7 16 -8 15
-15 -3 -5 -11 -9 -14 -9 -7 -1 10 -5 10 -21 0 -16 -10 -24 -10 -40 0 -12 7
-20 8 -20 2 0 -5 -5 -10 -11 -10 -5 0 -7 4 -4 10 3 5 1 18 -4 27 -9 16 -10 14
-11 -9 0 -16 -4 -28 -10 -28 -5 0 -10 11 -10 25 0 14 -4 25 -10 25 -5 0 -10 4
-10 9 0 5 38 8 85 7 74 -1 85 -4 94 -21z m371 -8 c6 -16 9 -18 9 -5 1 24 17
31 57 24 28 -6 34 -11 34 -31 0 -14 5 -25 12 -25 6 0 8 3 5 6 -11 12 13 44 33
44 11 0 20 -4 20 -8 0 -5 14 -7 30 -4 24 3 30 0 31 -14 1 -17 2 -17 6 -1 6 23
18 21 31 -5 8 -18 11 -19 11 -5 1 25 31 21 32 -5 l2 -23 4 23 c5 24 11 26 33
12 9 -6 11 -10 3 -10 -7 0 -10 -7 -7 -15 4 -9 0 -15 -7 -15 -11 0 -11 -3 1
-10 11 -8 7 -10 -17 -8 -22 2 -33 7 -33 18 0 13 -1 13 -10 0 -9 -13 -11 -13
-20 0 -6 10 -10 11 -10 3 0 -7 -4 -13 -10 -13 -5 0 -10 7 -10 15 0 18 -26 20
-33 3 -4 -10 -8 -9 -16 2 -7 10 -11 11 -11 2 0 -9 -15 -11 -52 -8 -29 2 -61 4
-70 5 -10 1 -18 9 -18 18 0 15 -2 14 -15 -3 -13 -16 -16 -17 -25 -4 -5 8 -10
23 -10 32 0 12 -5 15 -17 11 -12 -5 -13 -8 -4 -11 11 -4 11 -6 0 -13 -10 -6
-11 -9 -1 -9 6 0 12 -4 12 -10 0 -5 -9 -10 -20 -10 -11 0 -20 5 -20 11 0 5 -4
7 -10 4 -5 -3 -19 -8 -30 -10 -17 -3 -20 2 -20 30 l0 33 61 1 c53 0 61 -3 69
-22z m-847 -10 c-3 -5 -9 -21 -13 -35 l-7 -27 -11 28 c-14 34 -32 35 -32 2 0
-14 -4 -25 -10 -25 -5 0 -10 11 -10 25 0 14 -5 25 -11 25 -7 0 -9 -10 -7 -25
6 -28 -6 -34 -16 -9 -10 27 -7 42 12 47 29 8 111 3 105 -6z m-143 -22 c0 -14
5 -25 10 -25 6 0 10 -5 10 -11 0 -8 -14 -10 -40 -6 -24 3 -40 1 -40 -5 0 -6
-6 -8 -14 -5 -7 3 -19 0 -25 -6 -10 -9 -16 -7 -27 7 -14 20 -14 20 -15 0 -1
-10 -1 -23 0 -27 2 -13 -43 3 -56 20 -9 11 -9 21 -2 34 11 22 30 24 47 7 9 -9
12 -8 12 6 0 9 5 14 10 11 6 -3 10 -15 10 -26 0 -29 18 -23 22 9 l4 27 11 -25
12 -25 0 28 c1 17 6 27 16 27 8 0 15 -4 15 -8 0 -5 6 -16 13 -27 13 -16 14
-15 9 13 -2 20 0 32 7 32 6 0 11 -11 11 -25z m1380 0 c0 -18 16 -20 23 -2 3 6
6 -2 6 -20 1 -38 -13 -51 -28 -26 -9 16 -12 16 -21 3 -7 -12 -10 -8 -10 16 0
17 3 34 7 37 11 12 23 8 23 -8z m90 -16 c0 -5 -4 -9 -10 -9 -5 0 -12 -11 -16
-25 -8 -33 -18 -23 -20 19 -1 29 2 32 23 28 13 -2 23 -8 23 -13z"/>
<path d="M815 1810 c3 -5 8 -10 11 -10 2 0 4 5 4 10 0 6 -5 10 -11 10 -5 0 -7
-4 -4 -10z"/>
<path d="M1171 1678 c-1 -15 -5 -30 -11 -33 -19 -12 -10 -35 20 -50 29 -15 30
-15 36 10 5 19 1 32 -14 48 -10 12 -22 29 -25 37 -3 9 -6 4 -6 -12z"/>
<path d="M1176 1543 c-3 -3 -2 -11 4 -18 5 -6 11 -50 13 -98 2 -48 7 -91 12
-95 4 -4 4 34 0 84 -7 98 1 122 30 82 15 -23 16 -23 12 -1 -1 11 -9 28 -16 37
-13 15 -15 15 -28 -1 -8 -10 -12 -13 -9 -6 7 13 -8 26 -18 16z"/>
<path d="M947 1459 c-15 -19 -26 -27 -24 -19 1 11 -10 15 -50 17 -39 1 -53 -2
-53 -12 0 -9 14 -15 38 -18 24 -3 21 -4 -10 -2 -48 2 -48 2 -48 -31 0 -38 18
-47 79 -43 22 2 46 -3 54 -9 11 -10 16 -10 19 -1 2 6 16 12 31 12 15 0 24 3
21 8 -3 5 -18 9 -34 9 -34 0 -47 26 -20 40 12 6 20 21 20 36 0 24 2 25 57 22
49 -3 58 -6 61 -23 2 -11 8 -24 14 -30 7 -7 8 1 3 25 -4 19 -9 37 -11 39 -3 3
-30 7 -62 9 -56 4 -59 3 -85 -29z"/>
<path d="M1250 1465 c0 -5 5 -17 10 -25 5 -8 10 -10 10 -5 0 6 -5 17 -10 25
-5 8 -10 11 -10 5z"/>
<path d="M1273 1400 c4 -14 7 -28 7 -31 0 -4 6 -9 14 -12 11 -4 11 0 -2 26
-20 42 -26 48 -19 17z"/>
<path d="M1065 1370 c-35 -4 -45 -7 -32 -12 10 -5 30 -8 43 -8 14 0 22 -4 19
-10 -3 -5 -1 -10 5 -10 12 0 24 25 18 37 -1 4 -25 6 -53 3z"/>
<path d="M766 1315 c-58 -54 -20 -149 60 -149 28 0 43 7 65 32 l29 32 203 0
202 0 19 -42 19 -43 9 28 c10 27 28 37 28 16 0 -14 30 -38 48 -39 7 0 12 14
12 39 0 36 3 40 28 43 16 2 27 9 27 18 0 13 -41 15 -297 18 l-298 2 -15 24
c-32 49 -98 59 -139 21z m92 -21 c41 -28 22 -94 -28 -94 -59 0 -82 71 -30 97
32 16 31 16 58 -3z"/>
<path d="M1302 1320 c0 -14 2 -19 5 -12 2 6 2 18 0 25 -3 6 -5 1 -5 -13z"/>
<path d="M990 1320 c0 -5 5 -10 11 -10 5 0 7 5 4 10 -3 6 -8 10 -11 10 -2 0
-4 -4 -4 -10z"/>
<path d="M1028 1313 c7 -3 16 -2 19 1 4 3 -2 6 -13 5 -11 0 -14 -3 -6 -6z"/>
<path d="M1352 1065 c0 -16 2 -22 5 -12 2 9 2 23 0 30 -3 6 -5 -1 -5 -18z"/>
<path d="M1362 980 c0 -19 2 -27 5 -17 2 9 2 25 0 35 -3 9 -5 1 -5 -18z"/>
<path d="M902 935 c0 -16 2 -22 5 -12 2 9 2 23 0 30 -3 6 -5 -1 -5 -18z"/>
<path d="M1369 902 c-3 -20 -2 -29 4 -23 5 5 7 19 5 32 -3 20 -5 19 -9 -9z"/>
<path d="M985 880 c-46 -4 -6 -7 115 -7 114 -1 174 2 157 7 -31 9 -163 9 -272
0z"/>
<path d="M1625 1630 c-7 -12 2 -30 16 -30 5 0 9 9 9 20 0 21 -15 27 -25 10z"/>
<path d="M556 1544 c-9 -22 17 -49 39 -40 10 3 15 15 13 28 -4 29 -42 37 -52
12z"/>
<path d="M521 1408 c-7 -20 -5 -24 18 -28 27 -6 38 8 27 36 -8 22 -36 17 -45
-8z"/>
<path d="M1384 796 c-10 -26 4 -48 28 -44 17 2 23 10 23 28 0 18 -6 26 -23 28
-13 2 -25 -3 -28 -12z"/>
<path d="M990 725 c0 -8 5 -15 10 -15 6 0 10 7 10 15 0 8 -4 15 -10 15 -5 0
-10 -7 -10 -15z"/>
<path d="M1230 475 c0 -8 5 -15 10 -15 6 0 10 7 10 15 0 8 -4 15 -10 15 -5 0
-10 -7 -10 -15z"/>
<path d="M690 470 c-13 -9 -13 -10 0 -10 13 0 13 -1 0 -10 -13 -8 -12 -10 3
-10 10 0 17 8 17 20 0 23 0 23 -20 10z"/>
<path d="M730 460 c0 -19 3 -21 12 -12 9 9 9 15 0 24 -9 9 -12 7 -12 -12z"/>
<path d="M1030 475 c0 -8 5 -15 10 -15 6 0 10 7 10 15 0 8 -4 15 -10 15 -5 0
-10 -7 -10 -15z"/>
<path d="M1370 470 c0 -19 3 -21 12 -12 9 9 9 15 0 24 -9 9 -12 7 -12 -12z"/>
<path d="M1540 470 c13 -9 13 -11 0 -20 -13 -8 -12 -10 3 -10 10 0 17 8 17 20
0 12 -7 20 -17 20 -15 0 -16 -2 -3 -10z"/>
<path d="M1617 464 c-8 -8 1 -24 14 -24 5 0 9 7 9 15 0 15 -12 20 -23 9z"/>
<path d="M307 414 c-8 -8 1 -24 14 -24 5 0 9 7 9 15 0 15 -12 20 -23 9z"/>
<path d="M1370 2036 c0 -2 7 -9 15 -16 9 -7 15 -8 15 -2 0 5 -7 12 -15 16 -8
3 -15 4 -15 2z"/>
<path d="M710 2020 c0 -5 5 -10 11 -10 5 0 7 5 4 10 -3 6 -8 10 -11 10 -2 0
-4 -4 -4 -10z"/>
<path d="M1529 1998 c-3 -22 -1 -34 4 -29 5 5 7 21 5 37 -3 27 -4 26 -9 -8z"/>
<path d="M1614 2003 c6 -19 3 -23 -12 -23 -11 0 -22 5 -24 11 -3 8 -7 7 -15
-2 -9 -11 -6 -14 15 -16 14 0 31 -9 38 -18 11 -14 12 -11 10 19 -2 20 -7 40
-11 44 -4 4 -4 -3 -1 -15z"/>
<path d="M1642 1960 c0 -14 2 -19 5 -12 2 6 2 18 0 25 -3 6 -5 1 -5 -13z"/>
<path d="M1560 1945 c0 -8 5 -15 10 -15 6 0 10 7 10 15 0 8 -4 15 -10 15 -5 0
-10 -7 -10 -15z"/>
<path d="M498 1880 c9 -27 18 -50 22 -50 13 0 4 82 -10 90 -27 17 -28 11 -12
-40z"/>
<path d="M1619 1913 c12 -23 51 -32 51 -12 0 5 5 7 10 4 6 -3 10 -1 10 4 0 13
-10 14 -30 1 -10 -6 -21 -4 -34 8 -18 16 -18 16 -7 -5z"/>
<path d="M1640 1870 c0 -5 5 -10 10 -10 6 0 10 5 10 10 0 6 -4 10 -10 10 -5 0
-10 -4 -10 -10z"/>
</g>
</svg>
