<?xml version="1.0" standalone="no"?>
<!DOCTYPE svg PUBLIC "-//W3C//DTD SVG 20010904//EN"
 "http://www.w3.org/TR/2001/REC-SVG-20010904/DTD/svg10.dtd">
<svg version="1.0" xmlns="http://www.w3.org/2000/svg"
 width="512.000000pt" height="512.000000pt" viewBox="0 0 512.000000 512.000000"
 preserveAspectRatio="xMidYMid meet">

<g transform="translate(0.000000,512.000000) scale(0.100000,-0.100000)"
fill="#000000" stroke="none">
<path d="M2330 5110 c-494 -48 -950 -230 -1350 -538 -195 -150 -448 -432 -594
-662 -63 -99 -186 -351 -230 -471 -49 -134 -102 -340 -128 -499 -31 -195 -31
-565 0 -760 45 -276 116 -498 237 -745 132 -269 269 -460 489 -681 221 -220
412 -357 681 -489 247 -121 469 -192 745 -237 195 -31 565 -31 760 0 276 45
498 116 745 237 269 132 460 269 681 489 220 221 357 412 489 681 88 179 132
296 180 476 63 240 78 371 78 649 0 278 -15 409 -78 649 -48 180 -92 297 -180
476 -132 269 -269 460 -489 681 -221 220 -412 357 -681 489 -246 121 -474 193
-740 235 -147 23 -475 34 -615 20z m545 -639 c93 -31 174 -82 261 -164 43 -39
77 -62 110 -72 221 -66 367 -363 381 -776 7 -199 -11 -322 -69 -459 -51 -121
-56 -177 -29 -299 26 -115 28 -245 5 -321 -21 -72 -59 -146 -156 -307 -167
-279 -216 -420 -205 -589 15 -223 109 -359 322 -467 28 -13 140 -58 250 -99
110 -42 233 -90 274 -109 l73 -34 -83 -66 c-408 -322 -922 -500 -1449 -500
-527 0 -1041 178 -1449 500 l-83 66 73 34 c41 19 164 67 274 109 219 81 272
106 356 163 113 76 178 177 205 316 39 207 -4 358 -194 676 -97 161 -135 235
-156 307 -23 76 -21 206 5 321 26 119 21 179 -23 284 -62 143 -76 242 -58 395
16 140 50 252 119 395 129 265 297 441 552 578 163 87 287 130 434 151 64 9
182 -6 260 -33z"/>
</g>
</svg>
