<?xml version="1.0" encoding="UTF-8"?>
<svg version="1.1" viewBox="0 0 512.000000 512.000000" xmlns="http://www.w3.org/2000/svg" width="512" height="512">
<path d="M0 0 C12.58922732 8.69169037 21.52369791 20.38064594 24.8125 35.5 C25.31593263 38.96548973 25.4968858 42.37166971 25.3125 45.875 C26.4675 46.16375 27.6225 46.4525 28.8125 46.75 C56.77316701 56.09962367 78.10399194 82.66899848 91.3125 107.875 C91.90675781 108.99777344 92.50101562 110.12054688 93.11328125 111.27734375 C105.2577936 135.64715234 109.53838463 162.77048104 110.80558777 189.71684265 C113.54544228 247.69744178 128.52100064 300.60077551 156.07275391 351.57763672 C178.09018087 392.37794939 178.09018087 392.37794939 172.6875 411.625 C168.61367518 423.42063912 161.1451477 432.08399257 150 437.8125 C145.69719017 439.85650789 141.96353934 441.0015066 137.18695068 440.99525452 C135.96706451 440.99731651 135.96706451 440.99731651 134.72253418 440.99942017 C133.39759949 440.99402725 133.39759949 440.99402725 132.04589844 440.98852539 C131.10897156 440.98867142 130.17204468 440.98881744 129.20672607 440.9889679 C126.11175212 440.98827157 123.01683844 440.98049223 119.921875 440.97265625 C117.77524854 440.97079108 115.62862166 440.96936764 113.48199463 440.96836853 C107.83328068 440.96455118 102.18459246 440.95472754 96.53588867 440.94366455 C90.77132516 440.93343364 85.00675748 440.9288673 79.2421875 440.92382812 C67.93228037 440.9131046 56.62239232 440.89603753 45.3125 440.875 C45.2212812 441.79147812 45.2212812 441.79147812 45.1282196 442.72647095 C45.0442543 443.53168182 44.960289 444.3368927 44.8737793 445.16650391 C44.79234177 445.96311432 44.71090424 446.75972473 44.6269989 447.58047485 C42.27740163 464.72269699 30.20428789 479.34594955 17.5 490.1875 C-0.54872793 503.88062008 -21.79279596 507.37922848 -43.921875 504.59375 C-48.0664616 503.85244183 -51.82140902 502.51333147 -55.6875 500.875 C-56.64293701 500.48030518 -56.64293701 500.48030518 -57.61767578 500.07763672 C-68.04595368 495.67248084 -75.85769644 489.98611387 -83.6875 481.875 C-84.42484375 481.16859375 -85.1621875 480.4621875 -85.921875 479.734375 C-90.20316206 475.38671139 -93.15429742 470.63159325 -95.9375 465.25 C-96.25493164 464.64776611 -96.57236328 464.04553223 -96.89941406 463.42504883 C-99.15393253 458.80873853 -100.51913082 454.04443459 -101.80371094 449.08447266 C-102.07729935 448.04278679 -102.07729935 448.04278679 -102.35641479 446.98005676 C-102.80275961 445.27906427 -103.24549551 443.57712549 -103.6875 441.875 C-105.43611076 441.86953156 -105.43611076 441.86953156 -107.220047 441.86395264 C-118.23917806 441.82691247 -129.25803199 441.76904136 -140.27695179 441.69109726 C-145.94107486 441.65169194 -151.60504407 441.61946935 -157.26928711 441.60400391 C-162.74191537 441.58879167 -168.21412045 441.55426494 -173.68655968 441.50669098 C-175.76795447 441.49192424 -177.8494097 441.48396171 -179.9308567 441.48311615 C-196.70314185 441.46945783 -207.98848719 439.86218333 -220.625 428.06640625 C-228.31260311 420.09714527 -231.7778106 409.61291658 -231.9375 398.6875 C-231.96328125 397.64207031 -231.9890625 396.59664063 -232.015625 395.51953125 C-231.18160724 386.25597689 -227.16693296 378.1330706 -223.125 369.875 C-222.59269775 368.77559082 -222.06039551 367.67618164 -221.51196289 366.54345703 C-218.39580325 360.16985326 -215.13368819 353.91521571 -211.625 347.75 C-184.04395221 299.10001942 -170.46707347 244.70298578 -169.02124023 189.00268555 C-167.80286674 143.07029298 -153.03817357 103.90427438 -119.64453125 71.5234375 C-111.54986917 63.90750268 -94.290607 47.875 -82.6875 47.875 C-82.749375 46.6375 -82.81125 45.4 -82.875 44.125 C-82.83026778 29.87778895 -76.41145568 17.01380021 -66.6875 6.875 C-48.12030455 -9.43556708 -21.48504685 -12.64002061 0 0 Z " fill="#FEC107" transform="translate(284.6875,7.125)"/>
<path d="M0 0 C0.94504395 -0.02707031 1.89008789 -0.05414063 2.86376953 -0.08203125 C7.40331287 -0.05586202 9.64542882 0.08506163 13.41796875 2.78515625 C15.96944399 6.52556634 16.02513898 8.78050742 15.80859375 13.18359375 C15.04840592 16.8289039 13.26942188 18.43076562 10.3125 20.5625 C6.78708723 21.73763759 3.84305349 21.70973051 0.125 21.8125 C-17.45109827 22.65845145 -33.52745704 29.75392141 -45.6875 42.5625 C-64.57461296 64.73432826 -68.47513282 92.72585815 -69.35571289 120.80883789 C-69.88748441 137.72558816 -71.80993742 154.18880983 -74.5625 170.875 C-74.68547455 171.62682556 -74.8084491 172.37865112 -74.93515015 173.15325928 C-77.35772353 187.84044914 -80.46574956 202.33100599 -84.875 216.5625 C-85.31718872 217.99625977 -85.31718872 217.99625977 -85.76831055 219.45898438 C-93.40747498 243.85049414 -102.72134033 267.59961618 -114.51708984 290.29101562 C-115.92434513 293.02215939 -117.298663 295.76916639 -118.67578125 298.515625 C-119.74139536 300.6149856 -120.8078001 302.71394508 -121.875 304.8125 C-122.37435059 305.81410156 -122.87370117 306.81570313 -123.38818359 307.84765625 C-128.07014735 316.95917839 -128.07014735 316.95917839 -132.6875 319.5625 C-135.79252911 320.33344045 -138.5583716 320.19739562 -141.6875 319.5625 C-145.58115147 317.04785009 -146.48826627 315.23666764 -147.796875 310.80859375 C-148.40808774 303.9854497 -144.40003791 298.34230057 -141.12625122 292.63879395 C-139.09765893 289.0956187 -137.15253004 285.50692981 -135.19921875 281.921875 C-134.80717758 281.20602234 -134.41513641 280.49016968 -134.01121521 279.75262451 C-121.0626376 255.98038326 -111.56642714 229.71920101 -104.6875 203.5625 C-104.32446777 202.18650635 -104.32446777 202.18650635 -103.95410156 200.78271484 C-103.14563562 197.69125699 -102.35092584 194.59662714 -101.5625 191.5 C-101.32047852 190.55479492 -101.07845703 189.60958984 -100.82910156 188.63574219 C-97.18738238 174.01391494 -95.05259061 159.47245036 -93.625 144.5 C-93.45198712 142.7455973 -93.27889016 140.99120289 -93.10571289 139.23681641 C-92.3081103 131.01804805 -91.59201229 122.80127894 -91.09375 114.55859375 C-91.05149796 113.86066208 -91.00924591 113.16273041 -90.9657135 112.44364929 C-90.77575274 109.22474677 -90.60536315 106.00609479 -90.45874023 102.78491211 C-90.02512662 94.46571694 -88.63266487 86.65658625 -86.6875 78.5625 C-86.52048584 77.82016113 -86.35347168 77.07782227 -86.18139648 76.31298828 C-80.71586842 52.17223543 -67.54876793 28.41645682 -46.66796875 14.390625 C-31.76367563 5.24880432 -17.56975277 0.32317496 0 0 Z " fill="#FFD44E" transform="translate(250.6875,85.4375)"/>
<path d="M0 0 C48.84 0 97.68 0 148 0 C145.72960542 20.43355122 135.60198181 36.15813167 120.1875 49.3125 C102.13877207 63.00562008 80.89470404 66.50422848 58.765625 63.71875 C54.6210384 62.97744183 50.86609098 61.63833147 47 60 C46.36304199 59.73687012 45.72608398 59.47374023 45.06982422 59.20263672 C34.64154632 54.79748084 26.82980356 49.11111387 19 41 C18.26265625 40.29359375 17.5253125 39.5871875 16.765625 38.859375 C7.09970735 29.04359816 0 13.75675134 0 0 Z " fill="#FF9F00" transform="translate(182,448)"/>
<path d="M0 0 C12.58922732 8.69169037 21.52369791 20.38064594 24.8125 35.5 C25.31593263 38.96548973 25.4968858 42.37166971 25.3125 45.875 C24.75304687 45.70484375 24.19359375 45.5346875 23.6171875 45.359375 C21.88529863 44.8359102 20.15207438 44.316855 18.41796875 43.80078125 C16.27211743 43.16107463 14.12903465 42.51203354 11.98828125 41.85546875 C10.83714844 41.51128906 9.68601562 41.16710938 8.5 40.8125 C7.44167969 40.49152344 6.38335937 40.17054687 5.29296875 39.83984375 C-4.89504767 37.16991871 -15.196143 36.48581386 -25.6875 36.5 C-26.94554443 36.50161133 -28.20358887 36.50322266 -29.49975586 36.50488281 C-44.88248523 36.7043918 -59.28597262 39.47442723 -73.6875 44.875 C-75.43522687 45.46510893 -77.18508132 46.04897349 -78.9375 46.625 C-80.175 47.0375 -81.4125 47.45 -82.6875 47.875 C-83.42099781 33.20504373 -78.34514567 20.43735073 -68.9765625 9.26171875 C-51.06694711 -9.41195873 -22.18831646 -13.05376615 0 0 Z " fill="#F57C00" transform="translate(284.6875,7.125)"/>
</svg>
