<?xml version="1.0" standalone="no"?>
<!DOCTYPE svg PUBLIC "-//W3C//DTD SVG 20010904//EN"
 "http://www.w3.org/TR/2001/REC-SVG-20010904/DTD/svg10.dtd">
<svg version="1.0" xmlns="http://www.w3.org/2000/svg"
 width="512.000000pt" height="512.000000pt" viewBox="0 0 512.000000 512.000000"
 preserveAspectRatio="xMidYMid meet">

<g transform="translate(0.000000,512.000000) scale(0.100000,-0.100000)"
fill="#000000" stroke="none">
<path d="M2330 5110 c-494 -48 -950 -230 -1350 -538 -195 -150 -448 -432 -594
-662 -63 -99 -186 -351 -230 -471 -49 -134 -102 -340 -128 -499 -31 -195 -31
-565 0 -760 45 -276 116 -498 237 -745 132 -269 269 -460 489 -681 221 -220
412 -357 681 -489 247 -121 469 -192 745 -237 195 -31 565 -31 760 0 276 45
498 116 745 237 269 132 460 269 681 489 220 221 357 412 489 681 88 179 132
296 180 476 63 240 78 371 78 649 0 278 -15 409 -78 649 -48 180 -92 297 -180
476 -132 269 -269 460 -489 681 -221 220 -412 357 -681 489 -246 121 -474 193
-740 235 -147 23 -475 34 -615 20z m446 -625 c522 -84 875 -507 978 -1170 20
-126 36 -339 36 -475 0 -342 111 -764 262 -1001 19 -30 37 -65 41 -78 8 -31
-15 -85 -45 -105 -51 -33 -467 -128 -727 -166 -80 -11 -146 -21 -147 -23 -1
-1 4 -34 11 -74 26 -135 92 -236 204 -312 84 -57 137 -82 356 -163 110 -42
233 -90 274 -109 l74 -34 -88 -68 c-413 -324 -918 -498 -1445 -498 -527 0
-1032 174 -1445 498 l-88 68 74 34 c41 19 164 67 274 109 219 81 272 106 356
163 112 76 178 177 204 312 7 40 12 73 11 74 -1 2 -67 12 -147 23 -260 38
-676 133 -727 166 -30 20 -53 74 -45 105 4 13 22 48 41 78 151 237 262 659
262 1001 0 486 102 896 292 1179 59 87 171 207 251 268 233 180 563 252 903
198z"/>
</g>
</svg>
